# xmcd
#
# Track frame offsets:
#	150
#	16664
#	34652
#	57522
#	74667
#	94443
#	109520
#	127783
#
# Disc length: 1875 seconds
#
# Revision: 1
# Processed by: cddbd v1.5.2PL0 Copyright (c) Steve Scherf et al.
# Submitted via: audiograbber 1.83.01
#
DISCID=65075108
DTITLE=Chanka Chank - Rust Belt Cajun/Zydeco
DYEAR=1998
DGENRE=Zydeco
TTITLE0=No Sad Songs For Me
TTITLE1=Johnny Can't Dance
TTITLE2=Sey Seychelles
TTITLE3=Blues Du Solard
TTITLE4=Gotta Find My Woman
TTITLE5=Keep a Knockin'
TTITLE6=Chokin' Kind
TTITLE7=Bosco Stomp
EXTD=
EXTT0=
EXTT1=
EXTT2=
EXTT3=
EXTT4=
EXTT5=
EXTT6=
EXTT7=
PLAYORDER=
